<?xml version="1.0" standalone="no"?>
<!DOCTYPE svg PUBLIC "-//W3C//DTD SVG 20010904//EN"
 "http://www.w3.org/TR/2001/REC-SVG-20010904/DTD/svg10.dtd">
<svg version="1.0" xmlns="http://www.w3.org/2000/svg"
 width="700.000000pt" height="700.000000pt" viewBox="0 0 700.000000 700.000000"
 preserveAspectRatio="xMidYMid meet">
<metadata>
Created by potrace 1.11, written by Peter Selinger 2001-2013
</metadata>
<g transform="translate(0.000000,700.000000) scale(0.100000,-0.100000)"
fill="#000000" stroke="none">
<path d="M0 3500 l0 -3500 1593 0 1594 0 70 148 c113 234 188 493 225 772 18
137 15 449 -6 590 -37 246 -95 431 -221 700 -103 221 -146 323 -189 458 -173
537 -160 1077 39 1682 45 138 63 183 180 469 100 245 153 436 187 676 19 135
16 504 -5 645 -39 262 -109 499 -212 720 l-63 135 -1596 3 -1596 2 0 -3500z
m2909 2901 c93 -319 114 -632 62 -931 -34 -196 -66 -293 -220 -662 -217 -524
-318 -1056 -290 -1538 24 -428 115 -768 327 -1215 98 -209 132 -296 166 -432
82 -329 68 -670 -40 -1015 l-38 -118 -1193 0 -1193 0 0 3010 0 3010 1194 0
1193 0 32 -109z"/>
<path d="M3580 6992 c0 -4 37 -82 81 -172 112 -228 144 -305 185 -444 63 -216
77 -323 77 -571 1 -362 -30 -487 -242 -997 -217 -524 -318 -1056 -290 -1538
24 -428 115 -768 327 -1215 172 -365 216 -544 215 -875 -1 -157 -5 -206 -27
-324 -41 -214 -100 -381 -226 -635 l-109 -221 1714 0 1715 0 0 3500 0 3500
-1710 0 c-940 0 -1710 -4 -1710 -8z m2930 -3492 l0 -3010 -1094 0 -1093 0 19
68 c57 205 94 522 84 722 -18 345 -81 587 -241 930 -103 221 -146 323 -189
458 -171 532 -161 1068 33 1667 41 126 74 212 186 484 100 245 153 436 187
676 19 135 16 504 -5 645 -15 101 -56 300 -73 352 -5 17 32 18 1090 18 l1096
0 0 -3010z"/>
</g>
</svg>
